<svg xmlns="http://www.w3.org/2000/svg" viewBox="0 0 334.23 68.9"><defs><style>.cls-1{fill:#ffad16;}</style></defs><title>Asset 4</title><g id="Layer_2" data-name="Layer 2"><g id="Layer_1-2" data-name="Layer 1"><polygon class="cls-1" points="164.6 52.7 216.6 52.89 197.6 16.7 194.6 16.7 164.6 52.7"/><path d="M20.56,54A21.2,21.2,0,0,1,8.25,50.54a18.27,18.27,0,0,1-7.09-9.72Q-.89,34.57.69,26.06A30.28,30.28,0,0,1,6.34,12.53,25.48,25.48,0,0,1,16.49,4.71,33.15,33.15,0,0,1,29.56,2.16a39.49,39.49,0,0,1,4.9.32,42.07,42.07,0,0,1,4.93.94A24.27,24.27,0,0,1,43.67,4.9l2.17.93-3.61,7.06-3.38-.79c-1.68-.39-3.34-.69-5-.9a35.47,35.47,0,0,0-4.75-.33,21.09,21.09,0,0,0-8.64,1.76A16.79,16.79,0,0,0,13.83,18a21.39,21.39,0,0,0-3.71,9.14,21.27,21.27,0,0,0,.07,10,10.19,10.19,0,0,0,4.5,6,15.75,15.75,0,0,0,8.25,2,35.16,35.16,0,0,0,5.61-.46c1.92-.32,3.92-.71,6-1.19l2.95-.72,1.87,6.69-2.66,1A59.36,59.36,0,0,1,28.52,53,34.67,34.67,0,0,1,20.56,54Z"/><path d="M52.41,53.86a11.51,11.51,0,0,1-5.69-1.44,9.07,9.07,0,0,1-4.53-10.3,13.29,13.29,0,0,1,1.9-4.57,10.37,10.37,0,0,1,4-3.35,25,25,0,0,1,7.23-2.09L68.25,30l-1.08,5.18L55,38.38a6.32,6.32,0,0,0-2,.82,4.48,4.48,0,0,0-1.3,1.26A5.13,5.13,0,0,0,51,42.12c-.24,1.49.05,2.56.86,3.2a5.06,5.06,0,0,0,3.24,1,12.34,12.34,0,0,0,3.39-.57,18.71,18.71,0,0,0,4-1.73l3.38-1.94.79,4.68-4.24,3.38a18.08,18.08,0,0,1-4.9,2.81A14.49,14.49,0,0,1,52.41,53.86Zm23.76-.44a15.5,15.5,0,0,1-1.84.33,13.68,13.68,0,0,1-1.54.11c-3.08,0-5.21-.8-6.41-2.38a9.82,9.82,0,0,1-1.95-5.62l-.36-1.65L67,29.59a4.14,4.14,0,0,0-1-3.81q-1.4-1.52-5.22-1.52a42.48,42.48,0,0,0-5,.29c-1.58.19-3.07.43-4.46.72l-1.95.43-.93-6.41,1.94-.64q3.16-1,6.48-1.77a30.9,30.9,0,0,1,6.84-.75,17.31,17.31,0,0,1,5.94.93,10.31,10.31,0,0,1,4.14,2.67,9.09,9.09,0,0,1,2.16,4.06,12.11,12.11,0,0,1,0,5.23l-2.66,14.4c-.29,1.58-.11,2.62.54,3.13a9.12,9.12,0,0,0,4.07,1.11Z"/><path d="M76.41,68.9,86.56,16.7H93.4l-.14,6.7.79,1.51L85.77,67.32Zm23.11-15a19,19,0,0,1-4.39-.58A20.62,20.62,0,0,1,91,51.84l-4.46-2.16,2.66-6.34,3.39,1.23a21.63,21.63,0,0,0,3.24.79,18.93,18.93,0,0,0,3,.29,9.93,9.93,0,0,0,7-2.67c1.94-1.77,3.23-4.41,3.85-7.92s.39-6-.86-7.88-3.22-2.77-5.91-2.77a11.71,11.71,0,0,0-3.13.39,19.08,19.08,0,0,0-3.35,1.41L93,27.94l-.57-6.27,3.24-2a26.43,26.43,0,0,1,5.14-2.6,14.44,14.44,0,0,1,4.94-.93,13.57,13.57,0,0,1,6.44,1.47,12.09,12.09,0,0,1,4.5,4.14A15.26,15.26,0,0,1,119,28a23.67,23.67,0,0,1-.36,8,25.52,25.52,0,0,1-3.78,9.54,19.13,19.13,0,0,1-6.62,6.16A17.82,17.82,0,0,1,99.52,53.86Z"/><path d="M129.92,53.86a11.54,11.54,0,0,1-5.69-1.44,9.07,9.07,0,0,1-4.53-10.3,13.12,13.12,0,0,1,1.91-4.57,10.26,10.26,0,0,1,4-3.35,25,25,0,0,1,7.23-2.09L145.76,30l-1.08,5.18-12.17,3.25a6.41,6.41,0,0,0-2,.82,4.32,4.32,0,0,0-1.29,1.26,5.15,5.15,0,0,0-.69,1.66c-.24,1.49.05,2.56.86,3.2a5.07,5.07,0,0,0,3.25,1,12.34,12.34,0,0,0,3.38-.57,18.28,18.28,0,0,0,4-1.73l3.38-1.94.8,4.68-4.25,3.38a18.08,18.08,0,0,1-4.9,2.81A14.49,14.49,0,0,1,129.92,53.86Zm23.76-.44a15.5,15.5,0,0,1-1.84.33,13.52,13.52,0,0,1-1.54.11c-3.07,0-5.21-.8-6.41-2.38A9.74,9.74,0,0,1,142,45.86l-.36-1.65,2.88-14.62a4.17,4.17,0,0,0-1-3.81q-1.4-1.52-5.22-1.52a42.48,42.48,0,0,0-5,.29c-1.58.19-3.07.43-4.46.72l-1.94.43-.94-6.41,1.94-.64q3.17-1,6.48-1.77a30.9,30.9,0,0,1,6.84-.75,17.31,17.31,0,0,1,5.94.93,10.31,10.31,0,0,1,4.14,2.67,9.09,9.09,0,0,1,2.16,4.06,11.81,11.81,0,0,1,0,5.23l-2.66,14.4c-.29,1.58-.11,2.62.54,3.13a9.12,9.12,0,0,0,4.07,1.11Z"/><path d="M156.71,53.28l1.08-6.19,24.77-24.7,1.22,2H162.54L164,16.7h30.67l-1.16,6.05L167.8,48.31l-.43-2.73h21.89l-1.44,7.7Z"/><path d="M190.53,53.28l1.52-7.7h21.89l-1.48,2.73-15.9-25.56,1.17-6.05H228.4l-1.51,7.71H205.65l2-2,15.28,24.7-1.29,6.19Z"/><path d="M227.81,53.28l7.05-35.93h5.69l-7,35.93ZM239.54,8.13a3.21,3.21,0,0,1-2.87-1.25A3.77,3.77,0,0,1,236,4.1a4.61,4.61,0,0,1,.75-1.94A5,5,0,0,1,238.46.61,4.87,4.87,0,0,1,240.91,0a3.12,3.12,0,0,1,2.81,1.29,3.93,3.93,0,0,1,.65,2.81,4.07,4.07,0,0,1-.69,2A4.54,4.54,0,0,1,242,7.56,5.14,5.14,0,0,1,239.54,8.13Z"/><path d="M255.26,53.78q-5,0-7.2-2.26c-1.44-1.52-1.82-4-1.15-7.53l4.18-21.53h-8l.79-4,8.21-1.15,1.65-8.64L260,6.19l-2.16,11.16h13l-1,5.11h-13l-4,20.74c-.39,1.87-.23,3.2.46,4s2,1.18,3.93,1.18a25.48,25.48,0,0,0,2.88-.14l2.66-.29,1.73-.21.29,4.31-2,.58a23.56,23.56,0,0,1-3.81.87A26.48,26.48,0,0,1,255.26,53.78Z"/><path d="M285.31,53.78a15.17,15.17,0,0,1-9.11-2.66A14.08,14.08,0,0,1,271,44a19.23,19.23,0,0,1-.43-10A23.85,23.85,0,0,1,274,25.27a18.48,18.48,0,0,1,6.69-6.15,20.23,20.23,0,0,1,9.9-2.27,16.48,16.48,0,0,1,7.42,1.58,13.13,13.13,0,0,1,5,4.32,15.45,15.45,0,0,1,2.45,6.3,21.54,21.54,0,0,1-.22,7.6,25,25,0,0,1-3.56,8.85,18.12,18.12,0,0,1-6.66,6.09A20.54,20.54,0,0,1,285.31,53.78Zm.36-5.32a13.25,13.25,0,0,0,9.07-3.17,15.17,15.17,0,0,0,4.68-8.93,16.21,16.21,0,0,0,0-7.34,9,9,0,0,0-3.2-5A10,10,0,0,0,290,22.18a12.83,12.83,0,0,0-9.08,3.27,16,16,0,0,0-4.6,9,14.91,14.91,0,0,0,.14,7.48,8.94,8.94,0,0,0,3.38,4.83A10,10,0,0,0,285.67,48.46Z"/><path d="M306.44,53.28l7-35.93h4.25l-.14,6L316.16,23l4.61-2.74a29.1,29.1,0,0,1,5.4-2.45,16.73,16.73,0,0,1,5.25-.93,4.7,4.7,0,0,1,2.81.86l-.93,4.54c-1.11.05-2.21.12-3.31.21a22.06,22.06,0,0,0-3.53.62,31.63,31.63,0,0,0-4.32,1.47l-4.76,1.87L312.2,53.28Z"/></g></g></svg>