<svg xmlns="http://www.w3.org/2000/svg" viewBox="0 0 394.24 128.88"><defs><style>.cls-1{fill:#ffad16;}.cls-2{font-size:20px;font-family:Oswald-Light, Oswald;}.cls-3{letter-spacing:-0.01em;}.cls-4{letter-spacing:0em;}.cls-5{font-family:Oswald-Regular, Oswald;}</style></defs><title>capazzitor+slogan_1</title><g id="Layer_2" data-name="Layer 2"><g id="Layer_1-2" data-name="Layer 1"><polygon class="cls-1" points="201.79 52.7 253.79 52.89 234.79 16.7 231.79 16.7 201.79 52.7"/><path d="M57.75,54a21.2,21.2,0,0,1-12.31-3.46,18.28,18.28,0,0,1-7.1-9.72q-2-6.26-.46-14.76a30.17,30.17,0,0,1,5.65-13.53A25.41,25.41,0,0,1,53.68,4.71,33.12,33.12,0,0,1,66.75,2.16a39.45,39.45,0,0,1,4.89.32,42.24,42.24,0,0,1,4.94.94A24.85,24.85,0,0,1,80.86,4.9L83,5.83l-3.6,7.06L76,12.1c-1.69-.39-3.34-.69-5-.9a35.58,35.58,0,0,0-4.75-.33,21.09,21.09,0,0,0-8.64,1.76A16.79,16.79,0,0,0,51,18a21.39,21.39,0,0,0-3.71,9.14c-.77,4-.75,7.38.07,10a10.19,10.19,0,0,0,4.5,6,15.69,15.69,0,0,0,8.24,2,35.19,35.19,0,0,0,5.62-.46c1.92-.32,3.91-.71,6-1.19l3-.72,1.87,6.69-2.66,1A59.49,59.49,0,0,1,65.7,53,34.65,34.65,0,0,1,57.75,54Z"/><path d="M89.59,53.86a11.5,11.5,0,0,1-5.68-1.44,9.06,9.06,0,0,1-4.54-10.3,13.31,13.31,0,0,1,1.91-4.57,10.34,10.34,0,0,1,4-3.35,25,25,0,0,1,7.24-2.09L105.43,30l-1.07,5.18L92.19,38.38a6.32,6.32,0,0,0-2,.82,4.24,4.24,0,0,0-1.3,1.26,5.13,5.13,0,0,0-.68,1.66c-.24,1.49,0,2.56.86,3.2a5.06,5.06,0,0,0,3.24,1,12.22,12.22,0,0,0,3.38-.57,18.28,18.28,0,0,0,4-1.73L103,42.05l.79,4.68-4.25,3.38a17.88,17.88,0,0,1-4.89,2.81A14.58,14.58,0,0,1,89.59,53.86Zm23.77-.44a15.87,15.87,0,0,1-1.84.33,13.84,13.84,0,0,1-1.55.11c-3.07,0-5.21-.8-6.41-2.38a9.74,9.74,0,0,1-1.94-5.62l-.36-1.65,2.88-14.62a4.16,4.16,0,0,0-1-3.81q-1.41-1.52-5.22-1.52a42.23,42.23,0,0,0-5,.29c-1.59.19-3.07.43-4.47.72l-1.94.43-.94-6.41,2-.64q3.17-1,6.48-1.77a30.84,30.84,0,0,1,6.84-.75,17.39,17.39,0,0,1,5.94.93,10.45,10.45,0,0,1,4.14,2.67,9.29,9.29,0,0,1,2.16,4.06,12.11,12.11,0,0,1,0,5.23l-2.67,14.4c-.28,1.58-.1,2.62.54,3.13A9.17,9.17,0,0,0,115,47.66Z"/><path d="M113.59,68.9l10.16-52.2h6.84l-.15,6.7.8,1.51L123,67.32Zm23.12-15a18.88,18.88,0,0,1-4.39-.58,20.62,20.62,0,0,1-4.18-1.44l-4.47-2.16,2.67-6.34,3.38,1.23a21.93,21.93,0,0,0,3.24.79,18.94,18.94,0,0,0,3,.29A9.93,9.93,0,0,0,142.93,43c1.95-1.77,3.23-4.41,3.86-7.92s.38-6-.87-7.88-3.21-2.77-5.9-2.77a11.66,11.66,0,0,0-3.13.39,19.08,19.08,0,0,0-3.35,1.41l-3.31,1.73-.58-6.27,3.24-2a26.79,26.79,0,0,1,5.15-2.6,14.39,14.39,0,0,1,4.93-.93,13.58,13.58,0,0,1,6.45,1.47,12.24,12.24,0,0,1,4.5,4.14,15.4,15.4,0,0,1,2.23,6.3,24.2,24.2,0,0,1-.36,8A25.52,25.52,0,0,1,152,45.54a19.07,19.07,0,0,1-6.63,6.16A17.78,17.78,0,0,1,136.71,53.86Z"/><path d="M167.11,53.86a11.51,11.51,0,0,1-5.69-1.44,9.09,9.09,0,0,1-4.54-10.3,13.31,13.31,0,0,1,1.91-4.57,10.34,10.34,0,0,1,4-3.35,25.06,25.06,0,0,1,7.24-2.09L183,30l-1.08,5.18L169.7,38.38a6.32,6.32,0,0,0-2,.82,4.24,4.24,0,0,0-1.3,1.26,5.13,5.13,0,0,0-.68,1.66c-.24,1.49,0,2.56.86,3.2a5.06,5.06,0,0,0,3.24,1,12.34,12.34,0,0,0,3.39-.57,18.42,18.42,0,0,0,4-1.73l3.39-1.94.79,4.68L177,50.11a17.88,17.88,0,0,1-4.89,2.81A14.49,14.49,0,0,1,167.11,53.86Zm23.76-.44a15.87,15.87,0,0,1-1.84.33,13.68,13.68,0,0,1-1.55.11c-3.07,0-5.21-.8-6.4-2.38a9.75,9.75,0,0,1-2-5.62l-.36-1.65,2.88-14.62a4.16,4.16,0,0,0-1-3.81q-1.41-1.52-5.22-1.52a42.23,42.23,0,0,0-5,.29c-1.58.19-3.07.43-4.46.72l-2,.43-.93-6.41,1.94-.64q3.16-1,6.48-1.77a30.9,30.9,0,0,1,6.84-.75,17.35,17.35,0,0,1,5.94.93,10.45,10.45,0,0,1,4.14,2.67,9.29,9.29,0,0,1,2.16,4.06,12.11,12.11,0,0,1,0,5.23l-2.66,14.4c-.29,1.58-.11,2.62.54,3.13a9.07,9.07,0,0,0,4.06,1.11Z"/><path d="M193.9,53.28,195,47.09l24.77-24.7,1.22,2H199.73l1.44-7.71h30.67l-1.15,6.05L205,48.31l-.44-2.73h21.89L225,53.28Z"/><path d="M227.72,53.28l1.52-7.7h21.88l-1.48,2.73L233.75,22.75l1.17-6.05h30.67l-1.52,7.71H242.83l2-2,15.29,24.7-1.3,6.19Z"/><path d="M265,53.28l7.05-35.93h5.69l-7,35.93ZM276.73,8.13a3.24,3.24,0,0,1-2.88-1.25,3.81,3.81,0,0,1-.65-2.78A4.77,4.77,0,0,1,274,2.16,4.89,4.89,0,0,1,278.1,0a3.15,3.15,0,0,1,2.81,1.29,3.92,3.92,0,0,1,.64,2.81,4,4,0,0,1-.68,2,4.57,4.57,0,0,1-1.66,1.51A5.08,5.08,0,0,1,276.73,8.13Z"/><path d="M292.45,53.78q-5,0-7.2-2.26c-1.44-1.52-1.83-4-1.15-7.53l4.17-21.53h-8l.79-4,8.21-1.15,1.66-8.64,6.26-2.52L295,17.35h13l-1,5.11H294L290,43.2c-.38,1.87-.23,3.2.47,4s2,1.18,3.92,1.18a25.24,25.24,0,0,0,2.88-.14l2.67-.29,1.73-.21.28,4.31-2,.58a23.44,23.44,0,0,1-3.82.87A26.34,26.34,0,0,1,292.45,53.78Z"/><path d="M322.49,53.78a15.17,15.17,0,0,1-9.11-2.66A14.14,14.14,0,0,1,308.16,44a19.34,19.34,0,0,1-.43-10,24,24,0,0,1,3.49-8.71,18.59,18.59,0,0,1,6.7-6.15,20.23,20.23,0,0,1,9.9-2.27,16.51,16.51,0,0,1,7.42,1.58,13,13,0,0,1,5,4.32,15.31,15.31,0,0,1,2.45,6.3,21.53,21.53,0,0,1-.21,7.6,25,25,0,0,1-3.57,8.85,18,18,0,0,1-6.66,6.09A20.51,20.51,0,0,1,322.49,53.78Zm.36-5.32a13.23,13.23,0,0,0,9.07-3.17,15.17,15.17,0,0,0,4.68-8.93,16.08,16.08,0,0,0,0-7.34,9,9,0,0,0-3.21-5,10,10,0,0,0-6.26-1.83,12.8,12.8,0,0,0-9.07,3.27,16,16,0,0,0-4.61,9,15,15,0,0,0,.14,7.48A9,9,0,0,0,317,46.8,10,10,0,0,0,322.85,48.46Z"/><path d="M343.63,53.28l7-35.93h4.25l-.15,6L353.35,23l4.6-2.74a29.1,29.1,0,0,1,5.4-2.45,16.84,16.84,0,0,1,5.26-.93,4.72,4.72,0,0,1,2.81.86l-.94,4.54c-1.1.05-2.21.12-3.31.21a22.45,22.45,0,0,0-3.53.62,31.63,31.63,0,0,0-4.32,1.47l-4.75,1.87-5.18,26.86Z"/><text class="cls-2" transform="translate(37.23 87.58)"><tspan class="cls-3">P</tspan><tspan x="9.52" y="0">ortal de empleo pa</tspan><tspan class="cls-4" x="134.74" y="0">r</tspan><tspan x="140.64" y="0">a personas con </tspan><tspan class="cls-5" x="245.55" y="0">diversidad</tspan></text></g></g></svg>